<svg id="Layer_1" data-name="Layer 1" xmlns="http://www.w3.org/2000/svg" viewBox="0 0 275.31 11.69"><defs><style>.cls-1{fill:#2f2f2f;}</style></defs><title>dw</title><path id="icon-logo" class="cls-1" d="M.05,11.1H2.76a5.74,5.74,0,0,0,5.7-5.23C8.61,2.57,6.45,0,3.1,0H0V11.1Zm2.17-10h.39C5.22,1.11,6.55,2.44,6.55,5c0,2.32-1.08,3.89-3.94,3.89H2.22ZM22.73,8.88l.78,2.22h2.36L21.76,0H20.14l-4.2,11.1h2.31l.87-2.22Zm-.49-1.11H19.61l1.2-4.44h.05L22.24,7ZM34.41,11.1h2.22V3.33h0l5.83,7.77H44.4V0H42.18V7.77h0L36.31,0h-1.9V11.1ZM57.73,0H55.51V11.1h2.22V0ZM74.38,2.26V0H68.83V11.1h5.55V8.88H71.05V6.66h3.33V4.44H71.05V2.22h3.33v0ZM86.59,0H84.37V11.1h5.55V8.88H86.59V0Zm23.86,0h-2.19l3.44,11.1h1.45l2.23-7.77h.05l2.37,7.77h1.46L122.93,0h-2.2l-2.24,7.77h0L116.17,0h-1.3l-2.23,7.77h0L110.45,0Zm26.09,2.26V0H131V11.1h5.55V8.88h-3.33V6.66h3.33V4.44h-3.33V2.22h3.33v0ZM149.86,0h-2.22V11.1h5.55V8.88h-3.33V0ZM164.3,0h-2.22V11.1h5.55V8.88H164.3V0ZM181,0h-2.22V11.1H181V0Zm11.1,11.1h2.22V3.33h0l5.82,7.77H202V0h-2.22V7.77h0L193.94,0h-1.89V11.1Zm25.53-5.89V6.66h1.76a2.67,2.67,0,0,1-2.54,2.8c-2.08,0-3.15-2-3.15-3.88s1-4,3.1-4a2.89,2.89,0,0,1,2.54,1.76l1.9-1A4.73,4.73,0,0,0,216.8-.29c-3.33,0-5.41,2.73-5.41,5.87s2,5.77,5.27,5.77c3.42,0,5-2.77,5.36-5.91v-1h-4.44v.77Zm17.76-3h2.22V0H230.9V2.22h2.22V11.1h2.22V2.22Zm16.34,9.18a5.6,5.6,0,0,0,5.5-5.87,5.51,5.51,0,1,0-11,0A5.6,5.6,0,0,0,251.68,11.4Zm0-9.57a3.49,3.49,0,0,1,3.23,3.61c0,1.66-1.43,3.79-3.23,3.79s-3.24-2.13-3.24-3.79A3.49,3.49,0,0,1,251.68,1.83Zm14.75,9.27h2.22V3.33h0l5.83,7.77h.79V0h-2.22V7.77h0L267.21,0h-.78V11.1Z" transform="translate(0 0.29)"/></svg>