<?xml version="1.0" encoding="utf-8"?>
<!-- Generator: Adobe Illustrator 23.1.0, SVG Export Plug-In . SVG Version: 6.00 Build 0)  -->
<svg version="1.1" id="Layer_1" xmlns="http://www.w3.org/2000/svg" xmlns:xlink="http://www.w3.org/1999/xlink" x="0px" y="0px"
	 viewBox="0 0 1920 1080" style="enable-background:new 0 0 1920 1080;" xml:space="preserve">
<style type="text/css">
	.st0{fill:#2F2F2F;}
	.st1{fill:#212121;}
	.st2{fill:#FFFFFF;}
</style>
<g>
	
		<rect x="217.47" y="69.85" transform="matrix(0.5572 -0.8304 0.8304 0.5572 39.0451 232.3096)" class="st0" width="39.72" height="19.4"/>
	<polygon class="st0" points="200.64,315.75 213.68,324.5 334.61,144.26 261.75,95.37 250.43,112.25 234.32,101.44 223,118.31 
		239.11,129.12 239.11,129.12 255.21,139.93 266.53,123.05 310.25,152.38 	"/>
	<polygon class="st0" points="445.13,195.05 455.93,178.94 359.29,114.11 359.29,114.1 267.26,52.35 256.45,68.46 348.49,130.21 
		348.49,130.21 445.13,195.05 423,228.03 439.1,238.84 461.23,205.86 	"/>
	<polygon class="st0" points="418.21,200.35 345.35,151.46 224.42,331.7 237.46,340.45 347.07,177.09 390.78,206.42 379.46,223.29 
		395.57,234.1 395.57,234.1 411.67,244.9 423,228.03 406.89,217.22 	"/>
	<polygon class="st0" points="253.56,351.26 237.45,340.45 200.64,315.75 200.58,315.71 184.53,304.94 173.21,321.82 157.11,311.01 
		145.79,327.89 177.94,349.46 189.26,332.59 189.32,332.63 205.31,343.35 202.93,346.89 193.98,360.23 247.03,395.82 258.35,378.94 
		242.24,368.13 	"/>
</g>
<g>
	<g>
		
			<rect x="1661.69" y="910.8" transform="matrix(0.9119 -0.4103 0.4103 0.9119 -229.8727 766.5115)" class="st1" width="18.28" height="15.99"/>
		<polygon class="st1" points="1664.11,970.68 1647.44,978.18 1630.77,985.69 1615.77,952.34 1599.1,959.85 1614.1,993.19 
			1587.01,1005.38 1594.51,1022.05 1619.52,1010.79 1636.4,1048.3 1671.82,1032.36 1707.24,1016.42 1690.37,978.92 1715.37,967.66 
			1707.87,950.99 1680.78,963.18 1665.78,929.84 1649.11,937.34 		"/>
		
			<rect x="1667.11" y="866.87" transform="matrix(0.9119 -0.4103 0.4103 0.9119 -216.0572 765.8724)" class="st1" width="18.28" height="38.84"/>
		
			<rect x="1634.5" y="838.95" transform="matrix(0.9119 -0.4103 0.4103 0.9119 -207.4711 750.0327)" class="st1" width="18.28" height="38.84"/>
		
			<rect x="1601.89" y="811.02" transform="matrix(0.9119 -0.4103 0.4103 0.9119 -198.885 734.1929)" class="st1" width="18.28" height="38.84"/>
		
			<rect x="1578.34" y="948.31" transform="matrix(0.9119 -0.4103 0.4103 0.9119 -252.6022 735.6128)" class="st1" width="18.28" height="15.99"/>
		
			<rect x="1550.42" y="919.38" transform="matrix(0.9119 -0.4103 0.4103 0.9119 -247.8784 722.6142)" class="st1" width="18.28" height="38.84"/>
		
			<rect x="1551.15" y="876.45" transform="matrix(0.9119 -0.4103 0.4103 0.9119 -230.2006 719.1339)" class="st1" width="18.28" height="38.84"/>
		
			<rect x="1551.88" y="833.53" transform="matrix(0.9119 -0.4103 0.4103 0.9119 -212.5227 715.6536)" class="st1" width="18.28" height="38.84"/>
		<polygon class="st1" points="1602.54,900.67 1610.88,896.92 1619.21,893.17 1586.39,820.24 1594.73,816.48 1578.79,781.06 
			1568.37,785.75 1552.43,750.32 1546.18,753.14 1539.93,755.95 1555.87,791.37 1545.45,796.06 1561.39,831.49 1569.72,827.74 		"/>
	</g>
	
		<rect x="1647.93" y="995.08" transform="matrix(-0.9119 0.4103 -0.4103 -0.9119 3582.8757 1263.6279)" class="st2" width="15.81" height="42.43"/>
</g>
</svg>
