<?xml version="1.0" encoding="utf-8"?>
<!-- Generator: Adobe Illustrator 23.1.0, SVG Export Plug-In . SVG Version: 6.00 Build 0)  -->
<svg version="1.1" xmlns="http://www.w3.org/2000/svg" xmlns:xlink="http://www.w3.org/1999/xlink" x="0px" y="0px"
	 viewBox="0 0 1920 1080" style="enable-background:new 0 0 1920 1080;" xml:space="preserve">
<style type="text/css">
	.st0{fill:#2F2F2F;}
	.st1{fill:#212121;}
	.st2{fill:#FFFFFF;}
	.st3{display:none;}
	.st4{display:inline;fill:#EEEEEE;}
	.st5{display:inline;}
	.st6{fill:#EEEEEE;}
</style>
<g id="Layer_1">
	<g>
		
			<rect x="217.5" y="69.9" transform="matrix(0.5572 -0.8304 0.8304 0.5572 39.036 232.3149)" class="st0" width="39.7" height="19.4"/>
		<polygon class="st0" points="200.6,315.8 213.7,324.5 334.6,144.3 261.8,95.4 250.4,112.3 234.3,101.4 223,118.3 239.1,129.1 
			239.1,129.1 255.2,139.9 266.5,123.1 310.3,152.4 		"/>
		<polygon class="st0" points="445.1,195.1 455.9,178.9 359.3,114.1 359.3,114.1 267.3,52.3 256.5,68.5 348.5,130.2 348.5,130.2 
			445.1,195.1 423,228 439.1,238.8 461.2,205.9 		"/>
		<polygon class="st0" points="418.2,200.4 345.4,151.5 224.4,331.7 237.5,340.5 347.1,177.1 390.8,206.4 379.5,223.3 395.6,234.1 
			395.6,234.1 411.7,244.9 423,228 406.9,217.2 		"/>
		<polygon class="st0" points="253.6,351.3 237.4,340.5 200.6,315.8 200.6,315.7 184.5,304.9 173.2,321.8 157.1,311 145.8,327.9 
			177.9,349.5 189.3,332.6 189.3,332.6 205.3,343.4 202.9,346.9 194,360.2 247,395.8 258.4,378.9 242.2,368.1 		"/>
	</g>
	<g>
		<g>
			
				<rect x="1663.9" y="911.6" transform="matrix(1 -3.400950e-03 3.400950e-03 1 -3.1179 5.6951)" class="st1" width="18.3" height="16"/>
			<polygon class="st1" points="1645.8,964.3 1627.5,964.3 1609.3,964.4 1609.1,927.8 1590.9,927.9 1591,964.5 1561.3,964.6 
				1561.3,982.9 1588.8,982.8 1588.9,1023.9 1627.8,1023.8 1666.6,1023.6 1666.5,982.5 1693.9,982.4 1693.8,964.1 1664.1,964.2 
				1664,927.7 1645.7,927.7 			"/>
			
				<rect x="1682" y="872.7" transform="matrix(1 -3.400950e-03 3.400950e-03 1 -3.0243 5.7568)" class="st1" width="18.3" height="38.8"/>
			
				<rect x="1663.6" y="833.9" transform="matrix(1 -3.400950e-03 3.400950e-03 1 -2.8925 5.694)" class="st1" width="18.3" height="38.8"/>
			
				<rect x="1645.2" y="795.1" transform="matrix(1 -3.400950e-03 3.400950e-03 1 -2.7607 5.6311)" class="st1" width="18.3" height="38.8"/>
			
				<rect x="1572.5" y="911.9" transform="matrix(1 -3.400950e-03 3.400950e-03 1 -3.1195 5.3843)" class="st1" width="18.3" height="16"/>
			
				<rect x="1554.1" y="873.1" transform="matrix(1 -3.400950e-03 3.400950e-03 1 -3.0265 5.3216)" class="st1" width="18.3" height="38.8"/>
			
				<rect x="1572.2" y="834.2" transform="matrix(1 -3.400950e-03 3.400950e-03 1 -2.8941 5.3831)" class="st1" width="18.3" height="38.8"/>
			
				<rect x="1590.4" y="795.3" transform="matrix(1 -3.400950e-03 3.400950e-03 1 -2.7617 5.4446)" class="st1" width="18.3" height="38.8"/>
			<polygon class="st1" points="1618.1,875.3 1627.2,875.2 1636.4,875.2 1636.1,795.2 1645.3,795.2 1645.1,756.3 1633.7,756.4 
				1633.6,717.5 1626.7,717.6 1619.9,717.6 1620,756.4 1608.6,756.5 1608.7,795.3 1617.8,795.3 			"/>
		</g>
		
			<rect x="1611.9" y="981.4" transform="matrix(1 -3.400950e-03 3.400950e-03 1 -3.4003 5.5147)" class="st2" width="15.8" height="42.4"/>
	</g>
	<g class="st3">
		<polygon class="st4" points="1512,279 1512,396 1494,396 1494,450 1476,450 1476,504 1296,504 1296,450 1278,450 1278,423 
			1260,423 1260,387 1242,387 1242,342 1224,342 1224,324 1206,324 1206,270 1260,270 1260,288 1287,288 1287,135 1305,135 
			1305,117 1341,117 1341,135 1359,135 1359,207 1395,207 1395,225 1440,225 1440,243 1476,243 1476,261 1494,261 1494,279 		"/>
		<g class="st5">
			<rect x="1458" y="450" width="18" height="36"/>
			<rect x="1476" y="396" width="18" height="54"/>
			<rect x="1494" y="279" width="18" height="117"/>
			<rect x="1476" y="261" width="18" height="18"/>
			<rect x="1449" y="243" width="27" height="18"/>
			<rect x="1440" y="243" width="18" height="72"/>
			<rect x="1395" y="225" width="45" height="18"/>
			<rect x="1395" y="225" width="18" height="63"/>
			<rect x="1359" y="207" width="36" height="18"/>
			<rect x="1341" y="135" width="18" height="162"/>
			<rect x="1305" y="117" width="36" height="18"/>
			<rect x="1287" y="135" width="18" height="153"/>
			<rect x="1260" y="288" width="27" height="18"/>
			<rect x="1206" y="270" width="54" height="18"/>
			<rect x="1206" y="270" width="18" height="54"/>
			<rect x="1224" y="324" width="18" height="18"/>
			<rect x="1242" y="342" width="18" height="45"/>
			<rect x="1260" y="387" width="18" height="36"/>
			<rect x="1278" y="423" width="18" height="27"/>
			<rect x="1296" y="450" width="18" height="54"/>
			<rect x="1296" y="486" width="180" height="18"/>
		</g>
	</g>
	
		<image style="display:none;overflow:visible;" width="1300" height="1300" xlink:href="B5026088.jpg"  transform="matrix(0.4671 0 0 0.4671 589.7778 261)">
	</image>
	<g>
		<polygon class="st6" points="1161,601.1 1161,642.8 1134,642.8 1134,719.6 1105.8,719.6 1105.8,769.3 1078.8,769.3 1078.8,796.3 
			800,796.3 800,769.3 778.2,769.3 778.2,729 756,729 756,756 648,756 648,540 756,540 756,567 783,567 783,540 810,540 810,513 
			837,513 837,486 864,486 864,441 891,441 891,360 954,360 954,387 981,387 981,513 1107,513 1107,540 1134,540 1134,601.1 		"/>
		<rect x="648" y="540" width="27" height="216"/>
		<rect x="648" y="729" width="108" height="27"/>
		<rect x="648" y="540" width="108" height="27"/>
		<rect x="783" y="540" width="27" height="27"/>
		<rect x="810" y="513" width="27" height="27"/>
		<rect x="837" y="486" width="27" height="27"/>
		<rect x="864" y="441" width="27" height="45"/>
		<rect x="891" y="369" width="27" height="72"/>
		<rect x="891" y="360" width="63" height="27"/>
		<rect x="954" y="387" width="27" height="126"/>
		<rect x="981" y="513" width="126" height="27"/>
		<rect x="1107" y="540" width="27" height="61.1"/>
		<rect x="1134" y="601.1" width="27" height="41.7"/>
		<rect x="1064" y="642.8" width="70" height="27"/>
		<rect x="1107" y="669.8" width="27" height="49.8"/>
		<rect x="1078.8" y="719.6" width="27" height="49.8"/>
		<rect x="800" y="769.3" width="278.8" height="27"/>
		<rect x="778.2" y="731" width="21.8" height="38.4"/>
		<rect x="1029" y="719.6" width="49.8" height="27"/>
		<rect x="1075.5" y="574.1" width="31.5" height="27"/>
		<rect x="756" y="567" width="27" height="162"/>
	</g>
</g>
<g id="Layer_2">
	<g>
		<rect x="126" y="828" width="243" height="18"/>
		<rect x="337.5" y="805.5" transform="matrix(-1.836970e-16 1 -1 -1.836970e-16 1174.5 454.5)" width="45" height="18"/>
		<rect x="355.5" y="760.5" transform="matrix(-1.836970e-16 1 -1 -1.836970e-16 1147.5 391.5)" width="45" height="18"/>
		<rect x="337.5" y="679.5" transform="matrix(-1.836970e-16 1 -1 -1.836970e-16 1084.5 292.5)" width="117" height="18"/>
		<rect x="369" y="612" transform="matrix(-1.836970e-16 1 -1 -1.836970e-16 999 243)" width="18" height="18"/>
		<rect x="346.5" y="589.5" transform="matrix(-1.836970e-16 1 -1 -1.836970e-16 958.5 247.5)" width="18" height="27"/>
		<rect x="324" y="594" width="18" height="72"/>
		<rect x="288" y="558" transform="matrix(6.123234e-17 -1 1 6.123234e-17 -288 882)" width="18" height="54"/>
		<rect x="225" y="549" transform="matrix(6.123234e-17 -1 1 6.123234e-17 -333 801)" width="18" height="36"/>
		<rect x="198" y="495" transform="matrix(-1 -1.224647e-16 1.224647e-16 -1 414 1134)" width="18" height="144"/>
		<rect x="171" y="468" transform="matrix(-1.836970e-16 1 -1 -1.836970e-16 666 306)" width="18" height="36"/>
		<rect x="144" y="495" width="18" height="162"/>
		<rect x="126" y="657" transform="matrix(-1.836970e-16 1 -1 -1.836970e-16 801 531)" width="18" height="18"/>
		<rect x="90" y="621" transform="matrix(-1.836970e-16 1 -1 -1.836970e-16 747 549)" width="18" height="54"/>
		<rect x="54" y="639" width="18" height="72"/>
		<rect x="72" y="711" width="18" height="18"/>
		<rect x="90" y="729" width="18" height="36"/>
		<rect x="108" y="765" width="18" height="36"/>
		<rect x="126" y="801" width="18" height="36"/>
		<rect x="252" y="576" transform="matrix(-1 -1.224647e-16 1.224647e-16 -1 522 1215)" width="18" height="63"/>
	</g>
</g>
</svg>
